<svg xmlns="http://www.w3.org/2000/svg" width="1440" height="2860" viewBox="0 0 1440 2860">
  <defs>
    <style>
      .bg { fill: #f5f5f5; }
      .frame { fill: #ffffff; stroke: #222; stroke-width: 2; }
      .sec { fill: #fafafa; stroke: #555; stroke-width: 1.5; }
      .label { font-family: "Yu Gothic UI", "Meiryo", sans-serif; font-size: 22px; fill: #111; font-weight: 700; }
      .sub { font-family: "Yu Gothic UI", "Meiryo", sans-serif; font-size: 16px; fill: #444; }
      .tiny { font-family: "Yu Gothic UI", "Meiryo", sans-serif; font-size: 14px; fill: #666; }
      .card { fill: #fff; stroke: #777; stroke-width: 1.2; }
      .thumb { fill: #f0f0f0; stroke: #999; stroke-dasharray: 6 4; }
      .line { stroke: #999; stroke-width: 1.2; }
      .chip { fill: #f1f1f1; stroke: #999; stroke-width: 1; }
    </style>
  </defs>

  <rect class="bg" x="0" y="0" width="1440" height="2860" />
  <rect class="frame" x="120" y="40" width="1200" height="2780" rx="8" />

  <text x="140" y="28" class="sub">サブページ ワイヤーフレーム（PC）- 作品</text>

  <!-- Header -->
  <rect class="sec" x="140" y="70" width="1160" height="90" />
  <text x="165" y="124" class="label">1. ヘッダー（ロゴ / グローバルナビ）</text>
  <rect class="card" x="165" y="92" width="170" height="46" rx="4" />
  <text x="183" y="121" class="sub">ロゴ</text>
  <rect class="card" x="470" y="92" width="800" height="46" rx="4" />
  <text x="490" y="121" class="sub">NAV: ホーム | 塾について | 師範 | コース | 作品 | FAQ | アクセス | お問い合わせ</text>

  <!-- Hero -->
  <rect class="sec" x="140" y="180" width="1160" height="230" />
  <text x="165" y="222" class="label">2. ページヒーロー（作品）</text>
  <rect class="thumb" x="170" y="248" width="1100" height="130" />
  <text x="720" y="318" class="sub" text-anchor="middle">生徒作品と成長の実例</text>

  <!-- 絞り込み Bar -->
  <rect class="sec" x="140" y="430" width="1160" height="170" />
  <text x="165" y="472" class="label">3. カテゴリ絞り込み</text>
  <rect class="chip" x="170" y="510" width="120" height="42" rx="21" />
  <rect class="chip" x="300" y="510" width="120" height="42" rx="21" />
  <rect class="chip" x="430" y="510" width="120" height="42" rx="21" />
  <rect class="chip" x="560" y="510" width="120" height="42" rx="21" />
  <rect class="chip" x="690" y="510" width="120" height="42" rx="21" />
  <rect class="chip" x="820" y="510" width="120" height="42" rx="21" />
  <text x="230" y="536" class="tiny" text-anchor="middle">すべて</text>
  <text x="360" y="536" class="tiny" text-anchor="middle">師範1</text>
  <text x="490" y="536" class="tiny" text-anchor="middle">師範2</text>
  <text x="620" y="536" class="tiny" text-anchor="middle">師範3</text>
  <text x="750" y="536" class="tiny" text-anchor="middle">一般</text>
  <text x="880" y="536" class="tiny" text-anchor="middle">こども</text>

  <!-- Works Grid 1 -->
  <rect class="sec" x="140" y="620" width="1160" height="470" />
  <text x="165" y="662" class="label">4. 作品グリッド（1段目）</text>
  <rect class="thumb" x="170" y="692" width="255" height="360" />
  <rect class="thumb" x="445" y="692" width="255" height="360" />
  <rect class="thumb" x="720" y="692" width="255" height="360" />
  <rect class="thumb" x="995" y="692" width="275" height="360" />
  <text x="297" y="1068" class="tiny" text-anchor="middle">タイトル / カテゴリ / レベル</text>
  <text x="572" y="1068" class="tiny" text-anchor="middle">タイトル / カテゴリ / レベル</text>
  <text x="847" y="1068" class="tiny" text-anchor="middle">タイトル / カテゴリ / レベル</text>
  <text x="1132" y="1068" class="tiny" text-anchor="middle">タイトル / カテゴリ / レベル</text>

  <!-- Works Grid 2 -->
  <rect class="sec" x="140" y="1110" width="1160" height="470" />
  <text x="165" y="1152" class="label">5. 作品グリッド（2段目）</text>
  <rect class="thumb" x="170" y="1182" width="255" height="360" />
  <rect class="thumb" x="445" y="1182" width="255" height="360" />
  <rect class="thumb" x="720" y="1182" width="255" height="360" />
  <rect class="thumb" x="995" y="1182" width="275" height="360" />
  <text x="297" y="1558" class="tiny" text-anchor="middle">タイトル / カテゴリ / レベル</text>
  <text x="572" y="1558" class="tiny" text-anchor="middle">タイトル / カテゴリ / レベル</text>
  <text x="847" y="1558" class="tiny" text-anchor="middle">タイトル / カテゴリ / レベル</text>
  <text x="1132" y="1558" class="tiny" text-anchor="middle">タイトル / カテゴリ / レベル</text>

  <!-- Detail Preview -->
  <rect class="sec" x="140" y="1600" width="1160" height="320" />
  <text x="165" y="1642" class="label">6. 選択作品の詳細プレビュー</text>
  <rect class="thumb" x="170" y="1672" width="420" height="220" />
  <rect class="card" x="610" y="1672" width="660" height="220" />
  <text x="630" y="1710" class="sub">作品タイトル / 学習段階</text>
  <text x="630" y="1740" class="tiny">制作背景・学習ポイント・講評の要約</text>

  <!-- Pagination -->
  <rect class="sec" x="140" y="1940" width="1160" height="130" />
  <text x="165" y="1982" class="label">7. ページネーション</text>
  <rect class="chip" x="510" y="2002" width="60" height="34" rx="17" />
  <rect class="chip" x="580" y="2002" width="60" height="34" rx="17" />
  <rect class="chip" x="650" y="2002" width="60" height="34" rx="17" />
  <rect class="chip" x="720" y="2002" width="60" height="34" rx="17" />
  <text x="540" y="2024" class="tiny" text-anchor="middle">1</text>
  <text x="610" y="2024" class="tiny" text-anchor="middle">2</text>
  <text x="680" y="2024" class="tiny" text-anchor="middle">3</text>
  <text x="750" y="2024" class="tiny" text-anchor="middle">次へ</text>

  <!-- お問い合わせ Strip -->
  <rect class="sec" x="140" y="2090" width="1160" height="160" />
  <text x="165" y="2132" class="label">8. お問い合わせ導線</text>
  <rect class="card" x="170" y="2152" width="1100" height="78" />
  <text x="190" y="2198" class="tiny">作品を見て学びたい方：お問い合わせフォーム / 電話</text>

  <!-- Footer -->
  <rect class="sec" x="140" y="2270" width="1160" height="170" />
  <text x="165" y="2312" class="label">9. フッター</text>
  <line class="line" x1="170" y1="2330" x2="1270" y2="2330" />
  <text x="170" y="2372" class="tiny">お問い合わせ | 電話 | プライバシーポリシー | サイトマップ</text>

  <!-- 備考 -->
  <rect class="card" x="140" y="2460" width="1160" height="340" />
  <text x="165" y="2500" class="label">レイアウト注記</text>
  <text x="165" y="2532" class="tiny">- 指導品質の視覚的証拠を先頭で提示</text>
  <text x="165" y="2560" class="tiny">- 初回訪問で絞り込みと一覧性を理解できる構成にする</text>
  <text x="165" y="2588" class="tiny">- 閲覧の流れを保つため詳細プレビューを近接配置</text>
  <text x="165" y="2616" class="tiny">- スコープ上、問い合わせ導線は体験体験申込導線ではなく問い合わせ</text>
</svg>





